<svg width="1em" height="1em" viewBox="0 0 24 24" fill="currentColor" xmlns="http://www.w3.org/2000/svg">
	<path d="M9.5 7.75C9.5 7.33579 9.16421 7 8.75 7H7.56597H6.04847C6.41598 4.17873 8.82855 2 11.75 2C14.6714 2 17.084 4.17873 17.4515 7H15.934H13.25C12.8358 7 12.5 7.33579 12.5 7.75C12.5 8.16421 12.8358 8.5 13.25 8.5H16H17.5V10H16H13.25C12.8358 10 12.5 10.3358 12.5 10.75C12.5 11.1642 12.8358 11.5 13.25 11.5H15.934H17.4515C17.084 14.3213 14.6714 16.5 11.75 16.5C8.82855 16.5 6.41598 14.3213 6.04847 11.5H7.56597H8.75C9.16421 11.5 9.5 11.1642 9.5 10.75C9.5 10.3358 9.16421 10 8.75 10H7.5H6V8.5H7.5H8.75C9.16421 8.5 9.5 8.16421 9.5 7.75Z"/>
	<path fill-rule="evenodd" clip-rule="evenodd" d="M3.75 9C4.16421 9 4.5 9.33579 4.5 9.75V10.75C4.5 14.7541 7.74594 18 11.75 18C15.7541 18 19 14.7541 19 10.75V9.75C19 9.33579 19.3358 9 19.75 9C20.1642 9 20.5 9.33579 20.5 9.75V10.75C20.5 15.3298 16.9814 19.0879 12.5 19.4683V21.75C12.5 22.1642 12.1642 22.5 11.75 22.5C11.3358 22.5 11 22.1642 11 21.75V19.4683C6.5186 19.0879 3 15.3298 3 10.75V9.75C3 9.33579 3.33579 9 3.75 9Z"/>
</svg>
