<svg width="1em" height="1em" viewBox="0 0 24 24" fill="currentColor" xmlns="http://www.w3.org/2000/svg">
	<path d="M11.75 2C8.57436 2 6 4.57436 6 7.75V10.75C6 13.9256 8.57436 16.5 11.75 16.5C14.6714 16.5 17.084 14.3213 17.4515 11.5H12.75C12.3358 11.5 12 11.1642 12 10.75C12 10.3358 12.3358 10 12.75 10H17.5V8.5H12.75C12.3358 8.5 12 8.16421 12 7.75C12 7.33579 12.3358 7 12.75 7H17.4515C17.084 4.17873 14.6714 2 11.75 2Z"/>
	<path fill-rule="evenodd" clip-rule="evenodd" d="M3.75 9C4.16421 9 4.5 9.33579 4.5 9.75V10.75C4.5 14.7541 7.74594 18 11.75 18C15.7541 18 19 14.7541 19 10.75V9.75C19 9.33579 19.3358 9 19.75 9C20.1642 9 20.5 9.33579 20.5 9.75V10.75C20.5 15.3298 16.9814 19.0879 12.5 19.4683V21.75C12.5 22.1642 12.1642 22.5 11.75 22.5C11.3358 22.5 11 22.1642 11 21.75V19.4683C6.5186 19.0879 3 15.3298 3 10.75V9.75C3 9.33579 3.33579 9 3.75 9Z"/>
</svg>
